<mxfile host="app.diagrams.net" modified="2022-08-17T09:19:19.216Z" agent="5.0 (X11)" etag="NRsRQhzm6W5mO5AcO4W3" version="20.2.3" type="github">
  <diagram id="kgpKYQtTHZ0yAKxKKP6v" name="Page-1">
    <mxGraphModel dx="2370" dy="1367" grid="1" gridSize="10" guides="1" tooltips="1" connect="1" arrows="1" fold="1" page="1" pageScale="1" pageWidth="850" pageHeight="1100" math="0" shadow="0">
      <root>
        <mxCell id="0" />
        <mxCell id="1" parent="0" />
        <mxCell id="3nuBFxr9cyL0pnOWT2aG-1" value="VinBDIInteractionService&#xa;" style="shape=umlLifeline;perimeter=lifelinePerimeter;container=1;collapsible=0;recursiveResize=0;rounded=0;shadow=0;strokeWidth=1;" parent="1" vertex="1">
          <mxGeometry x="110" y="90" width="160" height="1270" as="geometry" />
        </mxCell>
        <mxCell id="3nuBFxr9cyL0pnOWT2aG-2" value="" style="points=[];perimeter=orthogonalPerimeter;rounded=0;shadow=0;strokeWidth=1;" parent="3nuBFxr9cyL0pnOWT2aG-1" vertex="1">
          <mxGeometry x="75" y="70" width="10" height="1200" as="geometry" />
        </mxCell>
        <mxCell id="3nuBFxr9cyL0pnOWT2aG-5" value="ViviAssistantClient&#xa;" style="shape=umlLifeline;perimeter=lifelinePerimeter;container=1;collapsible=0;recursiveResize=0;rounded=0;shadow=0;strokeWidth=1;" parent="1" vertex="1">
          <mxGeometry x="320" y="90" width="130" height="780" as="geometry" />
        </mxCell>
        <mxCell id="x6MNJZ7GiIEYuVJthrSe-34" value="State Listening HOTWORK" style="verticalAlign=bottom;endArrow=block;shadow=0;strokeWidth=1;" edge="1" parent="3nuBFxr9cyL0pnOWT2aG-5" source="x6MNJZ7GiIEYuVJthrSe-11">
          <mxGeometry x="0.5892" y="-10" relative="1" as="geometry">
            <mxPoint x="280.5" y="120" as="sourcePoint" />
            <mxPoint x="70" y="120" as="targetPoint" />
            <Array as="points">
              <mxPoint x="225.5" y="120" />
              <mxPoint x="105.5" y="120" />
            </Array>
            <mxPoint as="offset" />
          </mxGeometry>
        </mxCell>
        <mxCell id="x6MNJZ7GiIEYuVJthrSe-52" value="" style="endArrow=classic;html=1;rounded=0;fontColor=#000000;exitX=1.2;exitY=0.656;exitDx=0;exitDy=0;exitPerimeter=0;" edge="1" parent="3nuBFxr9cyL0pnOWT2aG-5">
          <mxGeometry width="50" height="50" relative="1" as="geometry">
            <mxPoint x="72" y="610.2" as="sourcePoint" />
            <mxPoint x="64.5" y="651" as="targetPoint" />
            <Array as="points">
              <mxPoint x="130" y="610" />
              <mxPoint x="130" y="651" />
            </Array>
          </mxGeometry>
        </mxCell>
        <mxCell id="3nuBFxr9cyL0pnOWT2aG-8" value="initialize" style="verticalAlign=bottom;endArrow=block;shadow=0;strokeWidth=1;" parent="1" source="3nuBFxr9cyL0pnOWT2aG-2" target="3nuBFxr9cyL0pnOWT2aG-5" edge="1">
          <mxGeometry relative="1" as="geometry">
            <mxPoint x="275" y="160" as="sourcePoint" />
            <Array as="points">
              <mxPoint x="240" y="180" />
            </Array>
          </mxGeometry>
        </mxCell>
        <mxCell id="x6MNJZ7GiIEYuVJthrSe-1" value="&lt;div&gt;User&lt;/div&gt;&lt;div&gt;&lt;br&gt;&lt;/div&gt;" style="shape=umlActor;verticalLabelPosition=bottom;verticalAlign=top;html=1;outlineConnect=0;" vertex="1" parent="1">
          <mxGeometry x="40" y="70" width="30" height="60" as="geometry" />
        </mxCell>
        <mxCell id="x6MNJZ7GiIEYuVJthrSe-10" value="" style="points=[];perimeter=orthogonalPerimeter;rounded=0;shadow=0;strokeWidth=1;" vertex="1" parent="1">
          <mxGeometry x="50" y="210" width="10" height="1160" as="geometry" />
        </mxCell>
        <mxCell id="x6MNJZ7GiIEYuVJthrSe-11" value="VinBDIRecognitionService" style="shape=umlLifeline;perimeter=lifelinePerimeter;container=1;collapsible=0;recursiveResize=0;rounded=0;shadow=0;strokeWidth=1;" vertex="1" parent="1">
          <mxGeometry x="700" y="90" width="160" height="540" as="geometry" />
        </mxCell>
        <mxCell id="x6MNJZ7GiIEYuVJthrSe-12" value="" style="points=[];perimeter=orthogonalPerimeter;rounded=0;shadow=0;strokeWidth=1;" vertex="1" parent="x6MNJZ7GiIEYuVJthrSe-11">
          <mxGeometry x="75" y="80" width="10" height="410" as="geometry" />
        </mxCell>
        <mxCell id="x6MNJZ7GiIEYuVJthrSe-38" value="" style="endArrow=classic;html=1;rounded=0;" edge="1" parent="x6MNJZ7GiIEYuVJthrSe-11" target="x6MNJZ7GiIEYuVJthrSe-42">
          <mxGeometry width="50" height="50" relative="1" as="geometry">
            <mxPoint x="-634.5" y="389" as="sourcePoint" />
            <mxPoint x="75" y="389" as="targetPoint" />
            <Array as="points">
              <mxPoint x="-564.5" y="389" />
              <mxPoint x="-384.5" y="389" />
              <mxPoint x="-204.5" y="389" />
              <mxPoint x="-24.5" y="389" />
            </Array>
          </mxGeometry>
        </mxCell>
        <mxCell id="x6MNJZ7GiIEYuVJthrSe-39" value="&lt;div&gt;speak&lt;/div&gt;&lt;div&gt;&amp;nbsp; command&lt;/div&gt;" style="edgeLabel;html=1;align=center;verticalAlign=middle;resizable=0;points=[];" vertex="1" connectable="0" parent="x6MNJZ7GiIEYuVJthrSe-38">
          <mxGeometry x="-0.2234" y="-5" relative="1" as="geometry">
            <mxPoint as="offset" />
          </mxGeometry>
        </mxCell>
        <mxCell id="x6MNJZ7GiIEYuVJthrSe-46" value="" style="endArrow=classic;html=1;rounded=0;exitX=-0.2;exitY=0.99;exitDx=0;exitDy=0;exitPerimeter=0;" edge="1" parent="x6MNJZ7GiIEYuVJthrSe-11" source="x6MNJZ7GiIEYuVJthrSe-42">
          <mxGeometry width="50" height="50" relative="1" as="geometry">
            <mxPoint x="235" y="459" as="sourcePoint" />
            <mxPoint x="85" y="459" as="targetPoint" />
            <Array as="points">
              <mxPoint x="165.5" y="459" />
            </Array>
          </mxGeometry>
        </mxCell>
        <mxCell id="x6MNJZ7GiIEYuVJthrSe-47" value="&lt;div&gt;callback (AsrResultText)&lt;br&gt;&lt;/div&gt;" style="edgeLabel;html=1;align=center;verticalAlign=middle;resizable=0;points=[];" vertex="1" connectable="0" parent="x6MNJZ7GiIEYuVJthrSe-46">
          <mxGeometry x="0.2835" y="-2" relative="1" as="geometry">
            <mxPoint x="27" y="-18" as="offset" />
          </mxGeometry>
        </mxCell>
        <mxCell id="x6MNJZ7GiIEYuVJthrSe-13" value="ASRHandler" style="shape=umlLifeline;perimeter=lifelinePerimeter;container=1;collapsible=0;recursiveResize=0;rounded=0;shadow=0;strokeWidth=1;" vertex="1" parent="1">
          <mxGeometry x="880" y="90" width="130" height="460" as="geometry" />
        </mxCell>
        <mxCell id="x6MNJZ7GiIEYuVJthrSe-14" value="" style="points=[];perimeter=orthogonalPerimeter;rounded=0;shadow=0;strokeWidth=1;" vertex="1" parent="x6MNJZ7GiIEYuVJthrSe-13">
          <mxGeometry x="60" y="130" width="10" height="240" as="geometry" />
        </mxCell>
        <mxCell id="x6MNJZ7GiIEYuVJthrSe-24" value="send AsrType.WakeUp" style="verticalAlign=bottom;endArrow=block;shadow=0;strokeWidth=1;" edge="1" parent="x6MNJZ7GiIEYuVJthrSe-13" target="x6MNJZ7GiIEYuVJthrSe-13">
          <mxGeometry relative="1" as="geometry">
            <mxPoint x="-90" y="140" as="sourcePoint" />
            <mxPoint x="60" y="161" as="targetPoint" />
            <Array as="points">
              <mxPoint x="-40" y="140" />
              <mxPoint x="10" y="140" />
            </Array>
          </mxGeometry>
        </mxCell>
        <mxCell id="x6MNJZ7GiIEYuVJthrSe-26" value="start(AsrParam)" style="verticalAlign=bottom;endArrow=block;shadow=0;strokeWidth=1;" edge="1" parent="x6MNJZ7GiIEYuVJthrSe-13" target="x6MNJZ7GiIEYuVJthrSe-20">
          <mxGeometry x="-0.0939" y="10" relative="1" as="geometry">
            <mxPoint x="70" y="150" as="sourcePoint" />
            <mxPoint x="224.5" y="150" as="targetPoint" />
            <Array as="points">
              <mxPoint x="120" y="150" />
              <mxPoint x="170" y="150" />
            </Array>
            <mxPoint as="offset" />
          </mxGeometry>
        </mxCell>
        <mxCell id="x6MNJZ7GiIEYuVJthrSe-42" value="" style="points=[];perimeter=orthogonalPerimeter;rounded=0;shadow=0;strokeWidth=1;" vertex="1" parent="x6MNJZ7GiIEYuVJthrSe-13">
          <mxGeometry x="60" y="360" width="10" height="100" as="geometry" />
        </mxCell>
        <mxCell id="x6MNJZ7GiIEYuVJthrSe-15" value="VoiceRecognitionClient&#xa;" style="shape=umlLifeline;perimeter=lifelinePerimeter;container=1;collapsible=0;recursiveResize=0;rounded=0;shadow=0;strokeWidth=1;" vertex="1" parent="1">
          <mxGeometry x="490" y="90" width="150" height="540" as="geometry" />
        </mxCell>
        <mxCell id="x6MNJZ7GiIEYuVJthrSe-16" value="" style="points=[];perimeter=orthogonalPerimeter;rounded=0;shadow=0;strokeWidth=1;" vertex="1" parent="x6MNJZ7GiIEYuVJthrSe-15">
          <mxGeometry x="70" y="80" width="10" height="420" as="geometry" />
        </mxCell>
        <mxCell id="x6MNJZ7GiIEYuVJthrSe-18" value="" style="endArrow=classic;html=1;rounded=0;" edge="1" parent="1" target="x6MNJZ7GiIEYuVJthrSe-11">
          <mxGeometry width="50" height="50" relative="1" as="geometry">
            <mxPoint x="70" y="220" as="sourcePoint" />
            <mxPoint x="110" y="250" as="targetPoint" />
            <Array as="points">
              <mxPoint x="140" y="220" />
              <mxPoint x="320" y="220" />
              <mxPoint x="500" y="220" />
              <mxPoint x="680" y="220" />
            </Array>
          </mxGeometry>
        </mxCell>
        <mxCell id="x6MNJZ7GiIEYuVJthrSe-19" value="&lt;div&gt;Hey Vinfast&lt;/div&gt;&lt;div&gt;&lt;br&gt;&lt;/div&gt;" style="edgeLabel;html=1;align=center;verticalAlign=middle;resizable=0;points=[];" vertex="1" connectable="0" parent="x6MNJZ7GiIEYuVJthrSe-18">
          <mxGeometry x="-0.2234" y="-5" relative="1" as="geometry">
            <mxPoint as="offset" />
          </mxGeometry>
        </mxCell>
        <mxCell id="x6MNJZ7GiIEYuVJthrSe-20" value="HybridASR" style="shape=umlLifeline;perimeter=lifelinePerimeter;container=1;collapsible=0;recursiveResize=0;rounded=0;shadow=0;strokeWidth=1;" vertex="1" parent="1">
          <mxGeometry x="1090" y="90" width="130" height="460" as="geometry" />
        </mxCell>
        <mxCell id="x6MNJZ7GiIEYuVJthrSe-21" value="" style="points=[];perimeter=orthogonalPerimeter;rounded=0;shadow=0;strokeWidth=1;" vertex="1" parent="x6MNJZ7GiIEYuVJthrSe-20">
          <mxGeometry x="60" y="80" width="10" height="380" as="geometry" />
        </mxCell>
        <mxCell id="x6MNJZ7GiIEYuVJthrSe-28" value="callBack" style="verticalAlign=bottom;endArrow=block;shadow=0;strokeWidth=1;" edge="1" parent="x6MNJZ7GiIEYuVJthrSe-20">
          <mxGeometry x="-0.0024" relative="1" as="geometry">
            <mxPoint x="60" y="210" as="sourcePoint" />
            <mxPoint x="-140.5" y="209.5" as="targetPoint" />
            <Array as="points">
              <mxPoint x="15" y="209.5" />
              <mxPoint x="-105" y="209.5" />
            </Array>
            <mxPoint as="offset" />
          </mxGeometry>
        </mxCell>
        <mxCell id="x6MNJZ7GiIEYuVJthrSe-22" value="onResult" style="verticalAlign=bottom;endArrow=block;shadow=0;strokeWidth=1;" edge="1" parent="1" source="x6MNJZ7GiIEYuVJthrSe-12" target="x6MNJZ7GiIEYuVJthrSe-15">
          <mxGeometry x="-0.0024" y="-10" relative="1" as="geometry">
            <mxPoint x="585.5" y="280" as="sourcePoint" />
            <mxPoint x="775" y="280" as="targetPoint" />
            <Array as="points">
              <mxPoint x="720" y="360" />
              <mxPoint x="600" y="360" />
            </Array>
            <mxPoint as="offset" />
          </mxGeometry>
        </mxCell>
        <mxCell id="x6MNJZ7GiIEYuVJthrSe-23" value="register RecognitionListener" style="verticalAlign=bottom;endArrow=block;shadow=0;strokeWidth=1;exitX=1.4;exitY=0.046;exitDx=0;exitDy=0;exitPerimeter=0;" edge="1" parent="1" source="x6MNJZ7GiIEYuVJthrSe-16" target="x6MNJZ7GiIEYuVJthrSe-11">
          <mxGeometry relative="1" as="geometry">
            <mxPoint x="585.5" y="180" as="sourcePoint" />
            <mxPoint x="775" y="180" as="targetPoint" />
            <Array as="points">
              <mxPoint x="640" y="190" />
            </Array>
          </mxGeometry>
        </mxCell>
        <mxCell id="x6MNJZ7GiIEYuVJthrSe-31" value="" style="endArrow=classic;html=1;rounded=0;" edge="1" parent="1" source="x6MNJZ7GiIEYuVJthrSe-20">
          <mxGeometry width="50" height="50" relative="1" as="geometry">
            <mxPoint x="1110.5" y="530" as="sourcePoint" />
            <mxPoint x="950" y="530" as="targetPoint" />
            <Array as="points">
              <mxPoint x="1030.5" y="530" />
            </Array>
          </mxGeometry>
        </mxCell>
        <mxCell id="x6MNJZ7GiIEYuVJthrSe-32" value="&lt;div&gt;callback (AsrResultText)&lt;br&gt;&lt;/div&gt;" style="edgeLabel;html=1;align=center;verticalAlign=middle;resizable=0;points=[];" vertex="1" connectable="0" parent="x6MNJZ7GiIEYuVJthrSe-31">
          <mxGeometry x="0.2835" y="-2" relative="1" as="geometry">
            <mxPoint x="27" y="-18" as="offset" />
          </mxGeometry>
        </mxCell>
        <mxCell id="x6MNJZ7GiIEYuVJthrSe-36" value="" style="verticalAlign=bottom;endArrow=block;shadow=0;strokeWidth=1;" edge="1" parent="1">
          <mxGeometry x="-0.0024" y="-10" relative="1" as="geometry">
            <mxPoint x="560" y="390" as="sourcePoint" />
            <mxPoint x="390" y="390" as="targetPoint" />
            <Array as="points">
              <mxPoint x="545.5" y="390" />
              <mxPoint x="425.5" y="390" />
            </Array>
            <mxPoint as="offset" />
          </mxGeometry>
        </mxCell>
        <mxCell id="x6MNJZ7GiIEYuVJthrSe-44" value="voiceAsstantStartMessage" style="text;html=1;align=center;verticalAlign=middle;resizable=0;points=[];autosize=1;strokeColor=none;fillColor=none;fontColor=#000000;" vertex="1" parent="1">
          <mxGeometry x="380" y="365" width="180" height="30" as="geometry" />
        </mxCell>
        <mxCell id="x6MNJZ7GiIEYuVJthrSe-45" value="runDialog(AsrResultText)&#xa;" style="verticalAlign=bottom;endArrow=block;shadow=0;strokeWidth=1;entryX=-0.333;entryY=0.157;entryDx=0;entryDy=0;entryPerimeter=0;" edge="1" parent="1" target="x6MNJZ7GiIEYuVJthrSe-61">
          <mxGeometry x="0.0212" relative="1" as="geometry">
            <mxPoint x="1310" y="780" as="sourcePoint" />
            <mxPoint x="1510" y="780.06" as="targetPoint" />
            <Array as="points">
              <mxPoint x="1360" y="780" />
              <mxPoint x="1410" y="780" />
            </Array>
            <mxPoint as="offset" />
          </mxGeometry>
        </mxCell>
        <mxCell id="x6MNJZ7GiIEYuVJthrSe-48" value="onResul(AsrResultText)" style="verticalAlign=bottom;endArrow=block;shadow=0;strokeWidth=1;" edge="1" parent="1">
          <mxGeometry x="-0.0024" y="-10" relative="1" as="geometry">
            <mxPoint x="780.5" y="570" as="sourcePoint" />
            <mxPoint x="570" y="570" as="targetPoint" />
            <Array as="points">
              <mxPoint x="725.5" y="570" />
              <mxPoint x="605.5" y="570" />
            </Array>
            <mxPoint as="offset" />
          </mxGeometry>
        </mxCell>
        <mxCell id="x6MNJZ7GiIEYuVJthrSe-49" value="onResul(AsrResultText)" style="verticalAlign=bottom;endArrow=block;shadow=0;strokeWidth=1;exitX=0.513;exitY=0.928;exitDx=0;exitDy=0;exitPerimeter=0;" edge="1" parent="1" source="x6MNJZ7GiIEYuVJthrSe-15">
          <mxGeometry x="-0.0024" y="-10" relative="1" as="geometry">
            <mxPoint x="550" y="590" as="sourcePoint" />
            <mxPoint x="390" y="590" as="targetPoint" />
            <Array as="points">
              <mxPoint x="545.5" y="590" />
              <mxPoint x="425.5" y="590" />
            </Array>
            <mxPoint as="offset" />
          </mxGeometry>
        </mxCell>
        <mxCell id="x6MNJZ7GiIEYuVJthrSe-51" value="runChat" style="text;html=1;align=center;verticalAlign=middle;resizable=0;points=[];autosize=1;strokeColor=none;fillColor=none;fontColor=#000000;" vertex="1" parent="1">
          <mxGeometry x="1690" y="810" width="70" height="30" as="geometry" />
        </mxCell>
        <mxCell id="x6MNJZ7GiIEYuVJthrSe-53" value="&lt;div&gt;change ThinkingState&lt;/div&gt;&lt;div&gt;&lt;br&gt;&lt;/div&gt;" style="text;html=1;align=center;verticalAlign=middle;resizable=0;points=[];autosize=1;strokeColor=none;fillColor=none;fontColor=#000000;" vertex="1" parent="1">
          <mxGeometry x="410" y="710" width="160" height="40" as="geometry" />
        </mxCell>
        <mxCell id="x6MNJZ7GiIEYuVJthrSe-55" value="DialogClient" style="shape=umlLifeline;perimeter=lifelinePerimeter;container=1;collapsible=0;recursiveResize=0;rounded=0;shadow=0;strokeWidth=1;" vertex="1" parent="1">
          <mxGeometry x="1250" y="90" width="130" height="650" as="geometry" />
        </mxCell>
        <mxCell id="x6MNJZ7GiIEYuVJthrSe-57" value="callBackData" style="verticalAlign=bottom;endArrow=block;shadow=0;strokeWidth=1;entryX=1;entryY=0.857;entryDx=0;entryDy=0;entryPerimeter=0;" edge="1" parent="1" target="x6MNJZ7GiIEYuVJthrSe-499">
          <mxGeometry x="-0.2623" y="-10" relative="1" as="geometry">
            <mxPoint x="2300" y="950.5" as="sourcePoint" />
            <mxPoint x="2010" y="950" as="targetPoint" />
            <Array as="points">
              <mxPoint x="2255" y="950" />
              <mxPoint x="2135" y="950" />
            </Array>
            <mxPoint as="offset" />
          </mxGeometry>
        </mxCell>
        <mxCell id="x6MNJZ7GiIEYuVJthrSe-58" value="" style="endArrow=classic;html=1;rounded=0;entryX=0;entryY=0.105;entryDx=0;entryDy=0;entryPerimeter=0;" edge="1" parent="1" target="x6MNJZ7GiIEYuVJthrSe-56">
          <mxGeometry width="50" height="50" relative="1" as="geometry">
            <mxPoint x="390" y="760" as="sourcePoint" />
            <mxPoint x="1264.5" y="760" as="targetPoint" />
            <Array as="points">
              <mxPoint x="460" y="760" />
              <mxPoint x="640" y="760" />
              <mxPoint x="820" y="760" />
              <mxPoint x="1000" y="760" />
            </Array>
          </mxGeometry>
        </mxCell>
        <mxCell id="x6MNJZ7GiIEYuVJthrSe-59" value="&lt;div&gt;runDialog(AsrResultText)&lt;/div&gt;&lt;div&gt;&lt;br&gt;&lt;/div&gt;" style="edgeLabel;html=1;align=center;verticalAlign=middle;resizable=0;points=[];" vertex="1" connectable="0" parent="x6MNJZ7GiIEYuVJthrSe-58">
          <mxGeometry x="-0.2234" y="-5" relative="1" as="geometry">
            <mxPoint as="offset" />
          </mxGeometry>
        </mxCell>
        <mxCell id="x6MNJZ7GiIEYuVJthrSe-56" value="" style="points=[];perimeter=orthogonalPerimeter;rounded=0;shadow=0;strokeWidth=1;" vertex="1" parent="1">
          <mxGeometry x="1310" y="720" width="10" height="370" as="geometry" />
        </mxCell>
        <mxCell id="x6MNJZ7GiIEYuVJthrSe-60" value="DialogHandle" style="shape=umlLifeline;perimeter=lifelinePerimeter;container=1;collapsible=0;recursiveResize=0;rounded=0;shadow=0;strokeWidth=1;" vertex="1" parent="1">
          <mxGeometry x="1410" y="90" width="130" height="650" as="geometry" />
        </mxCell>
        <mxCell id="x6MNJZ7GiIEYuVJthrSe-61" value="" style="points=[];perimeter=orthogonalPerimeter;rounded=0;shadow=0;strokeWidth=1;" vertex="1" parent="1">
          <mxGeometry x="1470" y="720" width="10" height="380" as="geometry" />
        </mxCell>
        <mxCell id="x6MNJZ7GiIEYuVJthrSe-62" value="OfflineDialog" style="shape=umlLifeline;perimeter=lifelinePerimeter;container=1;collapsible=0;recursiveResize=0;rounded=0;shadow=0;strokeWidth=1;" vertex="1" parent="1">
          <mxGeometry x="1610" y="90" width="130" height="710" as="geometry" />
        </mxCell>
        <mxCell id="x6MNJZ7GiIEYuVJthrSe-484" value="Hook" style="shape=umlLifeline;perimeter=lifelinePerimeter;container=1;collapsible=0;recursiveResize=0;rounded=0;shadow=0;strokeWidth=1;" vertex="1" parent="1">
          <mxGeometry x="1770" y="90" width="130" height="1030" as="geometry" />
        </mxCell>
        <mxCell id="x6MNJZ7GiIEYuVJthrSe-496" value="" style="points=[];perimeter=orthogonalPerimeter;rounded=0;shadow=0;strokeWidth=1;" vertex="1" parent="x6MNJZ7GiIEYuVJthrSe-484">
          <mxGeometry x="60" y="740" width="10" height="180" as="geometry" />
        </mxCell>
        <mxCell id="x6MNJZ7GiIEYuVJthrSe-497" value="" style="endArrow=classic;html=1;rounded=0;fontColor=#000000;" edge="1" parent="x6MNJZ7GiIEYuVJthrSe-484" source="x6MNJZ7GiIEYuVJthrSe-485">
          <mxGeometry width="50" height="50" relative="1" as="geometry">
            <mxPoint x="10" y="820" as="sourcePoint" />
            <mxPoint x="60" y="770" as="targetPoint" />
          </mxGeometry>
        </mxCell>
        <mxCell id="x6MNJZ7GiIEYuVJthrSe-498" value="getHookApi" style="edgeLabel;html=1;align=center;verticalAlign=middle;resizable=0;points=[];fontColor=#000000;" vertex="1" connectable="0" parent="x6MNJZ7GiIEYuVJthrSe-497">
          <mxGeometry x="0.411" y="4" relative="1" as="geometry">
            <mxPoint as="offset" />
          </mxGeometry>
        </mxCell>
        <mxCell id="x6MNJZ7GiIEYuVJthrSe-485" value="" style="points=[];perimeter=orthogonalPerimeter;rounded=0;shadow=0;strokeWidth=1;" vertex="1" parent="1">
          <mxGeometry x="1670" y="800" width="10" height="290" as="geometry" />
        </mxCell>
        <mxCell id="x6MNJZ7GiIEYuVJthrSe-487" value="chat(text)" style="verticalAlign=bottom;endArrow=block;shadow=0;strokeWidth=1;entryX=-0.182;entryY=0.068;entryDx=0;entryDy=0;entryPerimeter=0;" edge="1" parent="1" target="x6MNJZ7GiIEYuVJthrSe-485">
          <mxGeometry x="0.0212" relative="1" as="geometry">
            <mxPoint x="1480" y="820.34" as="sourcePoint" />
            <mxPoint x="1636.67" y="820.0000000000003" as="targetPoint" />
            <Array as="points">
              <mxPoint x="1530" y="820.34" />
              <mxPoint x="1580" y="820.34" />
            </Array>
            <mxPoint as="offset" />
          </mxGeometry>
        </mxCell>
        <mxCell id="x6MNJZ7GiIEYuVJthrSe-489" value="SystemHook" style="shape=umlLifeline;perimeter=lifelinePerimeter;container=1;collapsible=0;recursiveResize=0;rounded=0;shadow=0;strokeWidth=1;" vertex="1" parent="1">
          <mxGeometry x="1930" y="90" width="130" height="750" as="geometry" />
        </mxCell>
        <mxCell id="x6MNJZ7GiIEYuVJthrSe-490" value="CloudHook" style="shape=umlLifeline;perimeter=lifelinePerimeter;container=1;collapsible=0;recursiveResize=0;rounded=0;shadow=0;strokeWidth=1;" vertex="1" parent="1">
          <mxGeometry x="2080" y="90" width="130" height="810" as="geometry" />
        </mxCell>
        <mxCell id="x6MNJZ7GiIEYuVJthrSe-507" value="" style="endArrow=classic;html=1;rounded=0;fontColor=#000000;" edge="1" parent="x6MNJZ7GiIEYuVJthrSe-490">
          <mxGeometry width="50" height="50" relative="1" as="geometry">
            <mxPoint x="-80.00000000000045" y="800" as="sourcePoint" />
            <mxPoint x="220" y="800" as="targetPoint" />
          </mxGeometry>
        </mxCell>
        <mxCell id="x6MNJZ7GiIEYuVJthrSe-508" value="queryData" style="edgeLabel;html=1;align=center;verticalAlign=middle;resizable=0;points=[];fontColor=#000000;" vertex="1" connectable="0" parent="x6MNJZ7GiIEYuVJthrSe-507">
          <mxGeometry x="0.411" y="4" relative="1" as="geometry">
            <mxPoint x="-22" y="-6" as="offset" />
          </mxGeometry>
        </mxCell>
        <mxCell id="x6MNJZ7GiIEYuVJthrSe-491" value="ProviderVFApp" style="shape=umlLifeline;perimeter=lifelinePerimeter;container=1;collapsible=0;recursiveResize=0;rounded=0;shadow=0;strokeWidth=1;" vertex="1" parent="1">
          <mxGeometry x="2240" y="90" width="130" height="780" as="geometry" />
        </mxCell>
        <mxCell id="x6MNJZ7GiIEYuVJthrSe-492" value="ViViService" style="shape=umlLifeline;perimeter=lifelinePerimeter;container=1;collapsible=0;recursiveResize=0;rounded=0;shadow=0;strokeWidth=1;" vertex="1" parent="1">
          <mxGeometry x="2390" y="90" width="130" height="1050" as="geometry" />
        </mxCell>
        <mxCell id="x6MNJZ7GiIEYuVJthrSe-493" value="TTSServiceApp" style="shape=umlLifeline;perimeter=lifelinePerimeter;container=1;collapsible=0;recursiveResize=0;rounded=0;shadow=0;strokeWidth=1;" vertex="1" parent="1">
          <mxGeometry x="2710" y="90" width="130" height="1130" as="geometry" />
        </mxCell>
        <mxCell id="x6MNJZ7GiIEYuVJthrSe-495" value="" style="endArrow=classic;html=1;rounded=0;fontColor=#000000;exitX=1.2;exitY=0.656;exitDx=0;exitDy=0;exitPerimeter=0;" edge="1" parent="1" target="x6MNJZ7GiIEYuVJthrSe-485">
          <mxGeometry width="50" height="50" relative="1" as="geometry">
            <mxPoint x="1682" y="840.2" as="sourcePoint" />
            <mxPoint x="1674.3235294117649" y="881" as="targetPoint" />
            <Array as="points">
              <mxPoint x="1740" y="840" />
              <mxPoint x="1740" y="1010" />
              <mxPoint x="1740" y="1020" />
            </Array>
          </mxGeometry>
        </mxCell>
        <mxCell id="x6MNJZ7GiIEYuVJthrSe-499" value="" style="points=[];perimeter=orthogonalPerimeter;rounded=0;shadow=0;strokeWidth=1;" vertex="1" parent="1">
          <mxGeometry x="1990" y="830" width="10" height="140" as="geometry" />
        </mxCell>
        <mxCell id="x6MNJZ7GiIEYuVJthrSe-501" value="" style="endArrow=classic;html=1;rounded=0;fontColor=#000000;" edge="1" parent="1">
          <mxGeometry width="50" height="50" relative="1" as="geometry">
            <mxPoint x="1839.9999999999995" y="880" as="sourcePoint" />
            <mxPoint x="1989.9999999999995" y="880" as="targetPoint" />
          </mxGeometry>
        </mxCell>
        <mxCell id="x6MNJZ7GiIEYuVJthrSe-502" value="getSytemHook" style="edgeLabel;html=1;align=center;verticalAlign=middle;resizable=0;points=[];fontColor=#000000;" vertex="1" connectable="0" parent="x6MNJZ7GiIEYuVJthrSe-501">
          <mxGeometry x="0.411" y="4" relative="1" as="geometry">
            <mxPoint x="-36" y="-6" as="offset" />
          </mxGeometry>
        </mxCell>
        <mxCell id="x6MNJZ7GiIEYuVJthrSe-503" value="" style="endArrow=classic;html=1;rounded=0;fontColor=#000000;" edge="1" parent="1" target="x6MNJZ7GiIEYuVJthrSe-505">
          <mxGeometry width="50" height="50" relative="1" as="geometry">
            <mxPoint x="1839.9999999999995" y="920" as="sourcePoint" />
            <mxPoint x="2150" y="920" as="targetPoint" />
            <Array as="points">
              <mxPoint x="2100" y="920" />
            </Array>
          </mxGeometry>
        </mxCell>
        <mxCell id="x6MNJZ7GiIEYuVJthrSe-504" value="getApiHook" style="edgeLabel;html=1;align=center;verticalAlign=middle;resizable=0;points=[];fontColor=#000000;" vertex="1" connectable="0" parent="x6MNJZ7GiIEYuVJthrSe-503">
          <mxGeometry x="0.411" y="4" relative="1" as="geometry">
            <mxPoint x="-36" y="-6" as="offset" />
          </mxGeometry>
        </mxCell>
        <mxCell id="x6MNJZ7GiIEYuVJthrSe-505" value="" style="points=[];perimeter=orthogonalPerimeter;rounded=0;shadow=0;strokeWidth=1;" vertex="1" parent="1">
          <mxGeometry x="2140" y="880" width="10" height="130" as="geometry" />
        </mxCell>
        <mxCell id="x6MNJZ7GiIEYuVJthrSe-509" value="" style="points=[];perimeter=orthogonalPerimeter;rounded=0;shadow=0;strokeWidth=1;" vertex="1" parent="1">
          <mxGeometry x="2300" y="875" width="10" height="85" as="geometry" />
        </mxCell>
        <mxCell id="x6MNJZ7GiIEYuVJthrSe-511" value="callBackHookData" style="verticalAlign=bottom;endArrow=block;shadow=0;strokeWidth=1;entryX=1;entryY=0.552;entryDx=0;entryDy=0;entryPerimeter=0;" edge="1" parent="1" target="x6MNJZ7GiIEYuVJthrSe-485">
          <mxGeometry x="-0.168" y="-11" relative="1" as="geometry">
            <mxPoint x="1988.21" y="961.25" as="sourcePoint" />
            <mxPoint x="1690" y="960" as="targetPoint" />
            <Array as="points">
              <mxPoint x="1943.21" y="960.75" />
              <mxPoint x="1823.21" y="960.75" />
            </Array>
            <mxPoint as="offset" />
          </mxGeometry>
        </mxCell>
        <mxCell id="x6MNJZ7GiIEYuVJthrSe-512" value="callBackApiHookData" style="verticalAlign=bottom;endArrow=block;shadow=0;strokeWidth=1;" edge="1" parent="1" target="x6MNJZ7GiIEYuVJthrSe-485">
          <mxGeometry x="0.0977" y="-11" relative="1" as="geometry">
            <mxPoint x="2140" y="1001" as="sourcePoint" />
            <mxPoint x="1840.9" y="1000.0000000000001" as="targetPoint" />
            <Array as="points">
              <mxPoint x="2104.11" y="1000.67" />
              <mxPoint x="1984.1100000000001" y="1000.67" />
            </Array>
            <mxPoint as="offset" />
          </mxGeometry>
        </mxCell>
        <mxCell id="x6MNJZ7GiIEYuVJthrSe-513" value="&lt;div&gt;change UserCmState&lt;/div&gt;&lt;div&gt;&lt;br&gt;&lt;/div&gt;" style="text;html=1;align=center;verticalAlign=middle;resizable=0;points=[];autosize=1;strokeColor=none;fillColor=none;fontColor=#000000;" vertex="1" parent="1">
          <mxGeometry x="405" y="630" width="150" height="40" as="geometry" />
        </mxCell>
        <mxCell id="3nuBFxr9cyL0pnOWT2aG-6" value="" style="points=[];perimeter=orthogonalPerimeter;rounded=0;shadow=0;strokeWidth=1;" parent="1" vertex="1">
          <mxGeometry x="380" y="180" width="10" height="1190" as="geometry" />
        </mxCell>
        <mxCell id="x6MNJZ7GiIEYuVJthrSe-50" value="" style="endArrow=classic;html=1;rounded=0;fontColor=#000000;" edge="1" parent="1" target="3nuBFxr9cyL0pnOWT2aG-5">
          <mxGeometry width="50" height="50" relative="1" as="geometry">
            <mxPoint x="392" y="629" as="sourcePoint" />
            <mxPoint x="430" y="610" as="targetPoint" />
            <Array as="points">
              <mxPoint x="392" y="629" />
              <mxPoint x="450" y="629" />
              <mxPoint x="450" y="670" />
            </Array>
          </mxGeometry>
        </mxCell>
        <mxCell id="x6MNJZ7GiIEYuVJthrSe-515" value="" style="endArrow=classic;html=1;rounded=0;" edge="1" parent="1">
          <mxGeometry width="50" height="50" relative="1" as="geometry">
            <mxPoint x="1670" y="1030" as="sourcePoint" />
            <mxPoint x="1479.9999999999995" y="1030" as="targetPoint" />
            <Array as="points">
              <mxPoint x="1560.5" y="1030" />
            </Array>
          </mxGeometry>
        </mxCell>
        <mxCell id="x6MNJZ7GiIEYuVJthrSe-516" value="&lt;div&gt;callback (DialogResonse)&lt;br&gt;&lt;/div&gt;" style="edgeLabel;html=1;align=center;verticalAlign=middle;resizable=0;points=[];" vertex="1" connectable="0" parent="x6MNJZ7GiIEYuVJthrSe-515">
          <mxGeometry x="0.2835" y="-2" relative="1" as="geometry">
            <mxPoint x="22" y="-8" as="offset" />
          </mxGeometry>
        </mxCell>
        <mxCell id="x6MNJZ7GiIEYuVJthrSe-517" value="" style="endArrow=classic;html=1;rounded=0;exitX=-0.3;exitY=0.872;exitDx=0;exitDy=0;exitPerimeter=0;" edge="1" parent="1" source="x6MNJZ7GiIEYuVJthrSe-61">
          <mxGeometry width="50" height="50" relative="1" as="geometry">
            <mxPoint x="1460" y="1050" as="sourcePoint" />
            <mxPoint x="1319.9999999999995" y="1050" as="targetPoint" />
            <Array as="points">
              <mxPoint x="1400.5" y="1050" />
            </Array>
          </mxGeometry>
        </mxCell>
        <mxCell id="x6MNJZ7GiIEYuVJthrSe-518" value="onDialogFinished(vaResponse)" style="edgeLabel;html=1;align=center;verticalAlign=middle;resizable=0;points=[];" vertex="1" connectable="0" parent="x6MNJZ7GiIEYuVJthrSe-517">
          <mxGeometry x="0.2835" y="-2" relative="1" as="geometry">
            <mxPoint x="22" y="-8" as="offset" />
          </mxGeometry>
        </mxCell>
        <mxCell id="x6MNJZ7GiIEYuVJthrSe-520" value="" style="endArrow=classic;html=1;rounded=0;exitX=0;exitY=0.729;exitDx=0;exitDy=0;exitPerimeter=0;" edge="1" parent="1" source="x6MNJZ7GiIEYuVJthrSe-529">
          <mxGeometry width="50" height="50" relative="1" as="geometry">
            <mxPoint x="1299.9999999999995" y="1200" as="sourcePoint" />
            <mxPoint x="390" y="1200" as="targetPoint" />
            <Array as="points">
              <mxPoint x="1190.5" y="1200" />
            </Array>
          </mxGeometry>
        </mxCell>
        <mxCell id="x6MNJZ7GiIEYuVJthrSe-521" value="commandResultCallBack" style="edgeLabel;html=1;align=center;verticalAlign=middle;resizable=0;points=[];" vertex="1" connectable="0" parent="x6MNJZ7GiIEYuVJthrSe-520">
          <mxGeometry x="0.2835" y="-2" relative="1" as="geometry">
            <mxPoint x="22" y="-8" as="offset" />
          </mxGeometry>
        </mxCell>
        <mxCell id="x6MNJZ7GiIEYuVJthrSe-523" value="" style="endArrow=classic;html=1;rounded=0;fontColor=#000000;exitX=1.2;exitY=0.656;exitDx=0;exitDy=0;exitPerimeter=0;" edge="1" parent="1">
          <mxGeometry width="50" height="50" relative="1" as="geometry">
            <mxPoint x="397.5" y="1110.2" as="sourcePoint" />
            <mxPoint x="390" y="1151" as="targetPoint" />
            <Array as="points">
              <mxPoint x="455.5" y="1110" />
              <mxPoint x="455.5" y="1151" />
            </Array>
          </mxGeometry>
        </mxCell>
        <mxCell id="x6MNJZ7GiIEYuVJthrSe-524" value="&lt;div&gt;change ResponseState&lt;/div&gt;&lt;div&gt;&lt;br&gt;&lt;/div&gt;" style="text;html=1;align=center;verticalAlign=middle;resizable=0;points=[];autosize=1;strokeColor=none;fillColor=none;fontColor=#000000;" vertex="1" parent="1">
          <mxGeometry x="420" y="1120" width="160" height="40" as="geometry" />
        </mxCell>
        <mxCell id="x6MNJZ7GiIEYuVJthrSe-525" value="" style="endArrow=classic;html=1;rounded=0;" edge="1" parent="1">
          <mxGeometry width="50" height="50" relative="1" as="geometry">
            <mxPoint x="390" y="1161.15" as="sourcePoint" />
            <mxPoint x="2450" y="1160" as="targetPoint" />
            <Array as="points">
              <mxPoint x="460" y="1161.15" />
              <mxPoint x="640" y="1161.15" />
              <mxPoint x="820" y="1161.15" />
              <mxPoint x="1000" y="1161.15" />
            </Array>
          </mxGeometry>
        </mxCell>
        <mxCell id="x6MNJZ7GiIEYuVJthrSe-526" value="sendCommandToVF" style="edgeLabel;html=1;align=center;verticalAlign=middle;resizable=0;points=[];" vertex="1" connectable="0" parent="x6MNJZ7GiIEYuVJthrSe-525">
          <mxGeometry x="-0.2234" y="-5" relative="1" as="geometry">
            <mxPoint y="-16" as="offset" />
          </mxGeometry>
        </mxCell>
        <mxCell id="x6MNJZ7GiIEYuVJthrSe-527" value="TextToSpeechController" style="shape=umlLifeline;perimeter=lifelinePerimeter;container=1;collapsible=0;recursiveResize=0;rounded=0;shadow=0;strokeWidth=1;" vertex="1" parent="1">
          <mxGeometry x="2540" y="90" width="150" height="1140" as="geometry" />
        </mxCell>
        <mxCell id="x6MNJZ7GiIEYuVJthrSe-529" value="" style="points=[];perimeter=orthogonalPerimeter;rounded=0;shadow=0;strokeWidth=1;" vertex="1" parent="1">
          <mxGeometry x="2450" y="1140" width="10" height="80" as="geometry" />
        </mxCell>
        <mxCell id="x6MNJZ7GiIEYuVJthrSe-530" value="" style="endArrow=classic;html=1;rounded=0;" edge="1" parent="1">
          <mxGeometry width="50" height="50" relative="1" as="geometry">
            <mxPoint x="1320" y="1080" as="sourcePoint" />
            <mxPoint x="410" y="1080" as="targetPoint" />
            <Array as="points">
              <mxPoint x="1210.5" y="1080" />
            </Array>
          </mxGeometry>
        </mxCell>
        <mxCell id="x6MNJZ7GiIEYuVJthrSe-531" value="onDialogFinished(vaResponse)" style="edgeLabel;html=1;align=center;verticalAlign=middle;resizable=0;points=[];" vertex="1" connectable="0" parent="x6MNJZ7GiIEYuVJthrSe-530">
          <mxGeometry x="0.2835" y="-2" relative="1" as="geometry">
            <mxPoint x="22" y="-8" as="offset" />
          </mxGeometry>
        </mxCell>
        <mxCell id="x6MNJZ7GiIEYuVJthrSe-532" value="" style="points=[];perimeter=orthogonalPerimeter;rounded=0;shadow=0;strokeWidth=1;" vertex="1" parent="1">
          <mxGeometry x="2610" y="1210" width="10" height="50" as="geometry" />
        </mxCell>
        <mxCell id="x6MNJZ7GiIEYuVJthrSe-533" value="" style="points=[];perimeter=orthogonalPerimeter;rounded=0;shadow=0;strokeWidth=1;" vertex="1" parent="1">
          <mxGeometry x="2770" y="1210" width="10" height="90" as="geometry" />
        </mxCell>
        <mxCell id="x6MNJZ7GiIEYuVJthrSe-534" value="" style="endArrow=classic;html=1;rounded=0;exitX=1;exitY=0.871;exitDx=0;exitDy=0;exitPerimeter=0;" edge="1" parent="1" source="3nuBFxr9cyL0pnOWT2aG-6">
          <mxGeometry width="50" height="50" relative="1" as="geometry">
            <mxPoint x="550" y="1224.48" as="sourcePoint" />
            <mxPoint x="2610" y="1223.33" as="targetPoint" />
            <Array as="points">
              <mxPoint x="620" y="1224.48" />
              <mxPoint x="800" y="1224.48" />
              <mxPoint x="980" y="1224.48" />
              <mxPoint x="1160" y="1224.48" />
            </Array>
          </mxGeometry>
        </mxCell>
        <mxCell id="x6MNJZ7GiIEYuVJthrSe-535" value="sendTextToTTS" style="edgeLabel;html=1;align=center;verticalAlign=middle;resizable=0;points=[];" vertex="1" connectable="0" parent="x6MNJZ7GiIEYuVJthrSe-534">
          <mxGeometry x="-0.2234" y="-5" relative="1" as="geometry">
            <mxPoint y="-16" as="offset" />
          </mxGeometry>
        </mxCell>
        <mxCell id="x6MNJZ7GiIEYuVJthrSe-536" value="" style="endArrow=classic;html=1;rounded=0;" edge="1" parent="1" source="x6MNJZ7GiIEYuVJthrSe-532">
          <mxGeometry width="50" height="50" relative="1" as="geometry">
            <mxPoint x="2450" y="1251.66" as="sourcePoint" />
            <mxPoint x="390" y="1253.34" as="targetPoint" />
            <Array as="points">
              <mxPoint x="1190.5" y="1253.34" />
            </Array>
          </mxGeometry>
        </mxCell>
        <mxCell id="x6MNJZ7GiIEYuVJthrSe-537" value="callbackTTS" style="edgeLabel;html=1;align=center;verticalAlign=middle;resizable=0;points=[];" vertex="1" connectable="0" parent="x6MNJZ7GiIEYuVJthrSe-536">
          <mxGeometry x="0.2835" y="-2" relative="1" as="geometry">
            <mxPoint x="22" y="-8" as="offset" />
          </mxGeometry>
        </mxCell>
        <mxCell id="x6MNJZ7GiIEYuVJthrSe-538" value="" style="endArrow=classic;html=1;rounded=0;fontColor=#000000;" edge="1" parent="1">
          <mxGeometry width="50" height="50" relative="1" as="geometry">
            <mxPoint x="2620" y="1230" as="sourcePoint" />
            <mxPoint x="2760" y="1230" as="targetPoint" />
          </mxGeometry>
        </mxCell>
        <mxCell id="x6MNJZ7GiIEYuVJthrSe-539" value="sendTextTTS" style="edgeLabel;html=1;align=center;verticalAlign=middle;resizable=0;points=[];fontColor=#000000;" vertex="1" connectable="0" parent="x6MNJZ7GiIEYuVJthrSe-538">
          <mxGeometry x="0.411" y="4" relative="1" as="geometry">
            <mxPoint x="-22" y="-6" as="offset" />
          </mxGeometry>
        </mxCell>
        <mxCell id="x6MNJZ7GiIEYuVJthrSe-540" value="onResul(AsrResultText)" style="verticalAlign=bottom;endArrow=block;shadow=0;strokeWidth=1;" edge="1" parent="1">
          <mxGeometry x="-0.0024" y="-10" relative="1" as="geometry">
            <mxPoint x="790.5" y="580.0000000000002" as="sourcePoint" />
            <mxPoint x="580" y="580.0000000000002" as="targetPoint" />
            <Array as="points">
              <mxPoint x="735.5" y="580" />
              <mxPoint x="615.5" y="580" />
            </Array>
            <mxPoint as="offset" />
          </mxGeometry>
        </mxCell>
        <mxCell id="x6MNJZ7GiIEYuVJthrSe-541" value="" style="endArrow=classic;html=1;rounded=0;entryX=1.5;entryY=0.931;entryDx=0;entryDy=0;entryPerimeter=0;" edge="1" parent="1" target="x6MNJZ7GiIEYuVJthrSe-10">
          <mxGeometry width="50" height="50" relative="1" as="geometry">
            <mxPoint x="2770" y="1290" as="sourcePoint" />
            <mxPoint x="380" y="1290.0000000000002" as="targetPoint" />
            <Array as="points">
              <mxPoint x="1180.5" y="1290" />
            </Array>
          </mxGeometry>
        </mxCell>
        <mxCell id="x6MNJZ7GiIEYuVJthrSe-542" value="speake result user" style="edgeLabel;html=1;align=center;verticalAlign=middle;resizable=0;points=[];" vertex="1" connectable="0" parent="x6MNJZ7GiIEYuVJthrSe-541">
          <mxGeometry x="0.2835" y="-2" relative="1" as="geometry">
            <mxPoint x="22" y="-8" as="offset" />
          </mxGeometry>
        </mxCell>
        <mxCell id="x6MNJZ7GiIEYuVJthrSe-543" value="" style="endArrow=classic;html=1;rounded=0;fontColor=#000000;exitX=1.2;exitY=0.656;exitDx=0;exitDy=0;exitPerimeter=0;" edge="1" parent="1">
          <mxGeometry width="50" height="50" relative="1" as="geometry">
            <mxPoint x="397.5" y="1310.1999999999998" as="sourcePoint" />
            <mxPoint x="390" y="1351" as="targetPoint" />
            <Array as="points">
              <mxPoint x="455.5" y="1310" />
              <mxPoint x="455.5" y="1351" />
            </Array>
          </mxGeometry>
        </mxCell>
        <mxCell id="x6MNJZ7GiIEYuVJthrSe-544" value="&lt;div&gt;change Listening HotWork&lt;br&gt;&lt;/div&gt;&lt;div&gt;&lt;br&gt;&lt;/div&gt;" style="text;html=1;align=center;verticalAlign=middle;resizable=0;points=[];autosize=1;strokeColor=none;fillColor=none;fontColor=#000000;" vertex="1" parent="1">
          <mxGeometry x="395" y="1320" width="190" height="40" as="geometry" />
        </mxCell>
      </root>
    </mxGraphModel>
  </diagram>
</mxfile>
